<svg width="168" height="108" viewBox="0 0 168 108" fill="none" xmlns="http://www.w3.org/2000/svg">
<path d="M37.9314 107.892C59.381 107.892 76.3174 90.5007 76.3174 69.0511C76.3174 47.6015 58.7009 30.2105 37.2513 30.2105C37.0368 30.2105 36.7131 30.2396 36.4985 30.2433C44.9794 23.4898 55.6315 19.4203 67.2909 19.4203C72.6552 19.4203 76.972 15.0707 76.972 9.71014C76.972 4.34956 73.5207 1.43852e-05 68.1565 1.39163e-05C30.0833 0.00364218 1.43534e-05 30.9779 1.10249e-05 69.0511C1.10243e-05 69.0584 1.10237e-05 69.0657 1.10227e-05 69.0766C9.14849e-06 90.5153 16.4891 107.892 37.9314 107.892Z" fill="#FEFAFF"/>
<path d="M128.904 107.892C150.354 107.892 167.319 90.5007 167.319 69.0511C167.319 47.6015 149.717 30.2106 128.264 30.2106C128.05 30.2106 127.733 30.2397 127.519 30.2433C136 23.4898 146.655 19.4203 158.315 19.4203C163.679 19.4203 167.999 15.0707 167.999 9.71016C167.999 4.34958 164.494 2.20099e-05 159.129 2.15409e-05C121.056 0.00365743 90.9183 30.9779 90.9182 69.0511C90.9182 69.0584 90.9182 69.0657 90.9182 69.0766C90.9182 90.5153 107.462 107.892 128.904 107.892Z" fill="#FEFAFF"/>
</svg>
