<svg width="122" height="22" viewBox="0 0 122 22" fill="none" xmlns="http://www.w3.org/2000/svg">
<path fill-rule="evenodd" clip-rule="evenodd" d="M18.7026 5.03486C18.7026 7.8158 16.1646 10.0703 13.0336 10.0703C9.90254 10.0703 7.36449 7.8158 7.36449 5.03486C7.36449 2.25448 9.90254 0 13.0336 0C16.1646 0 18.7026 2.25448 18.7026 5.03486ZM5.66914 11.3292C2.53818 11.3292 0 13.583 0 16.3639C0 19.1446 2.53818 21.3989 5.66914 21.3989C8.80022 21.3989 11.3385 19.1446 11.3385 16.3639C11.3385 13.583 8.80022 11.3292 5.66914 11.3292ZM20.398 11.3287C17.267 11.3287 14.7289 13.583 14.7289 16.3639C14.7289 19.1446 17.267 21.3989 20.398 21.3989C23.5289 21.3989 26.0671 19.1446 26.0671 16.3639C26.0671 13.583 23.5289 11.3287 20.398 11.3287Z" fill="#B3B7BC"/>
<path fill-rule="evenodd" clip-rule="evenodd" d="M46.0137 16.3059C46.0876 17.0528 46.7603 18.0036 47.9258 18.0036H48.6077C48.872 18.0036 49.0887 17.8112 49.0887 17.5762V4.25664H49.0857C49.0719 4.03224 48.8632 3.85252 48.6077 3.85252H46.4947C46.2392 3.85252 46.0305 4.03224 46.0163 4.25664H46.0137V5.33893C44.7191 3.92164 42.678 3.33337 40.6311 3.33337C35.9786 3.33337 32.207 6.68563 32.207 10.8211C32.207 14.9568 35.9786 18.3092 40.6311 18.3092V18.3095C42.678 18.3095 44.9086 17.6037 46.0135 16.3042L46.0137 16.3059ZM40.6394 15.6885C37.6804 15.6885 35.2816 13.5095 35.2816 10.8211C35.2816 8.13316 37.6804 5.95402 40.6394 5.95402C43.5983 5.95402 45.9968 8.13316 45.9968 10.8211C45.9968 13.5095 43.5983 15.6885 40.6394 15.6885Z" fill="#B3B7BC"/>
<path fill-rule="evenodd" clip-rule="evenodd" d="M80.4395 16.3055C80.5134 17.0525 81.1861 18.0033 82.3516 18.0033H83.0335C83.2978 18.0033 83.5142 17.8108 83.5142 17.5758V4.25627H83.5115C83.4977 4.03188 83.2887 3.85216 83.0335 3.85216H80.9205C80.665 3.85216 80.4562 4.03188 80.4419 4.25627H80.4395V5.33856C79.1447 3.92127 77.1036 3.33301 75.0568 3.33301C70.4043 3.33301 66.6328 6.68526 66.6328 10.8207C66.6328 14.9564 70.4043 18.3088 75.0568 18.3088V18.3092C77.1036 18.3092 79.3344 17.6033 80.4392 16.3038L80.4395 16.3055ZM75.0649 15.6882C72.1062 15.6882 69.7073 13.5091 69.7073 10.8207C69.7073 8.13279 72.1062 5.95366 75.0649 5.95366C78.024 5.95366 80.4225 8.13279 80.4225 10.8207C80.4225 13.5091 78.024 15.6882 75.0649 15.6882Z" fill="#B3B7BC"/>
<path fill-rule="evenodd" clip-rule="evenodd" d="M118.923 16.3055C118.997 17.0525 119.67 18.0033 120.835 18.0033H121.517C121.782 18.0033 121.998 17.8108 121.998 17.5758V4.25627H121.995C121.982 4.03188 121.773 3.85216 121.517 3.85216H119.404C119.149 3.85216 118.94 4.03188 118.926 4.25627H118.923V5.33856C117.629 3.92127 115.588 3.33301 113.541 3.33301C108.888 3.33301 105.117 6.68526 105.117 10.8207C105.117 14.9564 108.888 18.3088 113.541 18.3088V18.3092C115.588 18.3092 117.818 17.6033 118.923 16.3038L118.923 16.3055ZM113.549 15.6882C110.59 15.6882 108.191 13.5091 108.191 10.8207C108.191 8.13279 110.59 5.95366 113.549 5.95366C116.508 5.95366 118.907 8.13279 118.907 10.8207C118.907 13.5091 116.508 15.6882 113.549 15.6882Z" fill="#B3B7BC"/>
<path fill-rule="evenodd" clip-rule="evenodd" d="M102.444 16.7644L102.443 9.87212H102.443C102.443 5.98696 99.6856 3.36597 95.2882 3.36597C93.1891 3.36597 91.4683 4.44485 90.8606 5.37164C90.7292 4.64696 90.2963 3.88523 88.954 3.88523H88.2698C88.0052 3.88523 87.7891 4.0778 87.7891 4.31276V16.3397V16.3416V17.6335H87.7918C87.8056 17.8575 88.0145 18.0375 88.2701 18.0375H90.383C90.4154 18.0375 90.4471 18.0341 90.4778 18.0287C90.4918 18.0263 90.5048 18.0214 90.5184 18.018C90.5341 18.0137 90.5504 18.0104 90.5654 18.005C90.5842 17.998 90.6012 17.9887 90.6187 17.9801C90.6273 17.9754 90.6363 17.9721 90.6446 17.9672C90.6657 17.9552 90.685 17.9406 90.7037 17.9257C90.7067 17.923 90.7104 17.9212 90.7135 17.9187C90.7345 17.9006 90.7537 17.8807 90.7707 17.86L90.7708 17.8597C90.8237 17.7951 90.8559 17.7174 90.8611 17.6335H90.8638V9.76527C90.8638 7.67866 92.7672 5.98696 95.115 5.98696C97.4626 5.98696 99.366 7.67866 99.366 9.76527L99.3679 16.342L99.3684 16.3397C99.3684 16.3455 99.3694 16.3516 99.3694 16.3578V17.6335H99.3723C99.3862 17.8575 99.5949 18.0375 99.8504 18.0375H101.964C101.996 18.0375 102.028 18.0341 102.058 18.0287C102.071 18.0267 102.082 18.0222 102.095 18.0192C102.112 18.0147 102.13 18.0109 102.146 18.005C102.163 17.9986 102.179 17.9897 102.196 17.9815C102.206 17.9765 102.216 17.9729 102.226 17.9672C102.245 17.9558 102.263 17.9421 102.28 17.9285C102.285 17.9248 102.29 17.9221 102.294 17.9183C102.314 17.9012 102.332 17.8826 102.348 17.8632C102.35 17.8617 102.351 17.8606 102.352 17.8591C102.404 17.7951 102.436 17.7179 102.441 17.6346C102.441 17.634 102.442 17.6335 102.442 17.6335H102.445V16.7647L102.444 16.7644Z" fill="#B3B7BC"/>
<path fill-rule="evenodd" clip-rule="evenodd" d="M54.1356 14.3981C55.5462 15.2667 57.0859 15.6885 58.5655 15.6885C59.9751 15.6885 61.4324 15.039 61.4324 13.9085C61.4324 12.3991 58.2569 12.1643 56.2619 11.5616C54.2664 10.9589 52.5477 9.71298 52.5477 7.69538C52.5477 4.60809 55.6426 3.33301 58.5313 3.33301C60.3615 3.33301 62.2499 3.86944 63.4742 4.63788C63.8958 4.92183 63.639 5.24785 63.639 5.24785L62.4704 6.73142C62.339 6.89852 62.1093 7.04289 61.7796 6.86203C61.45 6.68129 60.2936 5.95377 58.5313 5.95377C56.7688 5.95377 55.7072 6.67719 55.7072 7.57386C55.7072 8.6491 57.087 8.98729 58.7031 9.35377C61.5195 10.0285 64.5918 10.8396 64.5918 13.9085C64.5918 16.6286 61.7293 18.3096 58.5655 18.3096C56.168 18.3096 54.1268 17.7021 52.4148 16.5855C52.0581 16.2682 52.3073 15.9737 52.3073 15.9737L53.4702 14.4977C53.7068 14.2217 54.0051 14.3179 54.1356 14.3981Z" fill="#B3B7BC"/>
</svg>
