<svg width="133" height="29" viewBox="0 0 133 29" fill="none" xmlns="http://www.w3.org/2000/svg">
<path d="M0 5.99261C0 5.99261 3.3042 18.0492 3.83153 20.0061C4.44703 22.2903 5.55605 23.1309 8.75354 22.564L10.8168 15.089C11.3397 13.2323 11.6904 11.9085 12.0266 10.0198H12.0857C12.3219 11.9271 12.6582 13.2378 13.0885 15.0955C13.0885 15.0955 13.9284 18.4889 14.3585 20.2713C14.7898 22.053 15.9899 23.176 19.1218 22.5646L24.038 5.99388H20.0688L18.3904 13.1582C17.9392 15.2436 17.5297 16.8731 17.214 18.7809H17.158C16.8711 16.8921 16.5062 15.3272 16.0474 13.2954L14.2999 5.99388H10.1643L8.29505 13.1114C7.76547 15.2742 7.27015 17.0207 6.95517 18.8638H6.89813C6.57556 17.1281 6.14593 14.9331 5.68069 12.8394C5.68069 12.8394 4.57011 7.74865 4.18045 5.99388L0.000386466 5.99436L0 5.99261ZM37.838 5.99261V22.5634H41.617V19.0446V5.99182H37.838V5.99261ZM91.0617 5.99261V18.2171C91.0617 19.9026 91.4179 21.0834 92.18 21.8048C92.8458 22.4358 93.9425 22.8443 95.2566 22.8443C96.3739 22.8443 97.4732 22.6556 97.9913 22.4838L97.9426 19.8541C97.5571 19.9386 97.1136 20.0062 96.507 20.0062C95.2197 20.0062 94.788 19.272 94.788 17.7587V13.0817H98.0792V9.91118H94.788V5.99266H91.0615L91.0617 5.99261ZM29.3928 9.83406C27.0442 9.83406 25.18 10.4212 24.1637 10.9442L24.9074 13.2118C25.8375 12.6897 27.3183 12.2575 28.7204 12.2575C31.0419 12.2522 31.4214 13.4264 31.4214 14.1794V14.3575C26.363 14.3507 23.1678 15.9094 23.1678 19.0866C23.1678 21.0264 24.7943 22.8443 27.6227 22.8443C29.3637 22.8443 30.8198 22.226 31.6925 21.2353H31.7781C31.7781 21.2353 32.3559 23.3868 35.5396 22.564C35.3724 21.6686 35.318 20.7138 35.318 19.5639V15.1371C35.318 12.3157 33.9652 9.83411 29.3928 9.83411L29.3928 9.83406ZM51.9984 9.83406C49.6336 9.83406 48.5709 10.9012 47.9266 11.8066H47.8706V10.1151H44.2642V22.5641H48.0633V15.2633C48.0633 14.921 48.1072 14.5591 48.2414 14.2442C48.5561 13.5092 49.3242 12.6493 50.5504 12.6493C52.0833 12.6493 52.8006 13.8034 52.8006 15.4688V22.564H56.5956V15.1748C56.5956 14.8481 56.6459 14.4546 56.7539 14.1657C57.0659 13.3296 57.8939 12.6492 59.0337 12.6492C60.5878 12.6492 61.3336 13.7832 61.3336 15.7429V22.5641H65.1313V15.2319C65.1313 11.3651 62.9263 9.83413 60.4373 9.83413C59.3349 9.83413 58.4649 10.0803 57.6782 10.5103C57.017 10.8716 56.4251 11.3849 55.9077 12.0608H55.8517C55.2497 10.7192 53.8374 9.83413 51.9977 9.83413L51.9984 9.83406ZM72.8604 9.83406C70.5124 9.83406 68.6485 10.4212 67.6314 10.9442L68.3761 13.2118C69.3052 12.6897 70.787 12.2575 72.1884 12.2575C74.5083 12.2522 74.8887 13.4264 74.8887 14.1794V14.3575C69.8309 14.3507 66.6354 15.9094 66.6354 19.0866C66.6354 21.0264 68.2628 22.8443 71.0926 22.8443C72.8322 22.8443 74.2888 22.226 75.1599 21.2353H75.2458C75.2458 21.2353 75.8236 23.3868 79.0077 22.564C78.8402 21.6686 78.7865 20.7138 78.7865 19.5639V15.1371C78.7865 12.3157 77.4333 9.83411 72.8604 9.83411L72.8604 9.83406ZM88.6371 9.83406C87.1824 9.83406 85.5272 10.6703 84.8325 12.4628H84.7264V10.1149H81.3064V22.564H85.2051V16.1893C85.2051 15.8454 85.2285 15.5455 85.2896 15.2706C85.578 13.9352 86.725 13.0816 88.3712 13.0816C88.8231 13.0816 89.1466 13.1252 89.4965 13.1702V9.91107C89.2031 9.85828 89.0024 9.83395 88.6373 9.83395L88.6371 9.83406ZM31.5435 16.5635V18.1166C31.5435 18.3463 31.521 18.5833 31.4495 18.7906C31.1571 19.6531 30.1536 20.382 28.8992 20.382C27.8534 20.382 27.0226 19.8535 27.0226 18.7354C27.0226 17.0252 29.1368 16.5524 31.5436 16.5635H31.5435ZM75.0111 16.5635V18.1166C75.0111 18.3463 74.9882 18.5833 74.9172 18.7906C74.6247 19.6531 73.6216 20.382 72.3672 20.382C71.3212 20.382 70.4903 19.8535 70.4903 18.7354C70.4903 17.0252 72.6044 16.5524 75.0112 16.5635H75.0111Z" fill="#B3B7BC"/>
<path d="M118.51 0C117.29 0 116.321 0.60667 116.321 1.34522L117.062 8.81592C117.143 9.26601 117.763 9.6132 118.511 9.6132C119.261 9.61232 119.878 9.26544 119.962 8.81592L120.706 1.34522C120.706 0.606733 119.734 6.3436e-05 118.512 6.3436e-05L118.51 0ZM106.436 5.99264C105.803 6.00602 105.083 6.43302 104.626 7.13962C104.014 8.08052 104.122 9.13199 104.838 9.50087L112.473 12.6671C112.95 12.8251 113.598 12.5235 113.973 11.9476C113.973 11.9475 113.973 11.9473 113.973 11.9473C114.35 11.3685 114.321 10.7178 113.924 10.4292L107.028 6.1222C106.849 6.02984 106.648 5.98827 106.437 5.99273L106.436 5.99264ZM130.585 5.99264C130.373 5.98818 130.172 6.02974 129.994 6.12211L123.097 10.4291C122.702 10.7177 122.673 11.3685 123.048 11.9472L123.048 11.9475C123.425 12.5234 124.071 12.825 124.548 12.667L132.186 9.50093C132.905 9.13205 133.008 8.08063 132.4 7.13969C131.941 6.43307 131.22 6.00609 130.587 5.9927L130.585 5.99264ZM112.759 15.8492C112.66 15.848 112.564 15.8616 112.474 15.8916L104.839 19.054C104.123 19.4245 104.015 20.4764 104.627 21.4183C105.237 22.3573 106.313 22.8038 107.029 22.4355L113.925 18.1318C114.322 17.8397 114.351 17.1892 113.974 16.611L113.978 16.6123C113.673 16.1413 113.187 15.8542 112.759 15.8491L112.759 15.8492ZM124.265 15.8492C123.838 15.8543 123.353 16.1414 123.047 16.6124L123.05 16.6111C122.675 17.1893 122.704 17.8398 123.098 18.1319L129.995 22.4356C130.71 22.8039 131.787 22.3574 132.4 21.4184C133.008 20.4765 132.905 19.4246 132.186 19.0541L124.549 15.8917C124.46 15.8617 124.364 15.8481 124.265 15.8493L124.265 15.8492ZM118.509 18.9453C117.762 18.9461 117.144 19.2918 117.063 19.7407L116.322 27.2111C116.322 27.9509 117.291 28.5563 118.511 28.5563C119.734 28.5563 120.705 27.9509 120.705 27.2111L119.963 19.7407C119.879 19.2918 119.262 18.9462 118.512 18.9453H118.509H118.509Z" fill="#B3B7BC"/>
</svg>
