<svg width="120" height="18" viewBox="0 0 120 18" fill="none" xmlns="http://www.w3.org/2000/svg">
<path d="M11.874 9.06055C12.8285 9.12842 13.6303 9.46777 14.3175 10.1125C15.0048 10.7573 15.3484 11.6396 15.3484 12.7594C15.3484 14.1168 14.8521 15.2367 13.8212 16.0511C12.7903 16.8655 11.3395 17.2727 9.3923 17.2727H0V1.18771H9.35412C10.9959 1.18771 12.3322 1.59493 13.3248 2.37543C14.3175 3.18986 14.8139 4.24183 14.8139 5.56528C14.8139 6.58332 14.5084 7.36382 13.8594 7.97464C13.2103 8.58547 12.5612 8.89088 11.8358 8.95875L11.874 9.06055ZM4.46707 7.8389H8.36144C9.0105 7.8389 9.54502 7.66923 9.965 7.32988C10.3468 6.99054 10.5759 6.58332 10.5759 6.00643C10.5759 5.49741 10.385 5.12413 10.0032 4.81872C9.62138 4.51331 9.12504 4.37757 8.55234 4.37757H4.46707V7.8389ZM8.59052 14.0829C9.27776 14.0829 9.85046 13.9132 10.2323 13.6078C10.6141 13.3024 10.805 12.8612 10.805 12.2843C10.805 11.7414 10.6141 11.3342 10.1941 11.0288C9.81228 10.7233 9.27776 10.5537 8.66688 10.5537H4.46707V14.0829H8.59052ZM30.8113 17.2727H26.497V16.119C25.4279 17.137 24.0153 17.646 22.3353 17.646C20.7318 17.646 19.4718 17.1709 18.5173 16.2547C17.5628 15.3385 17.0665 14.1168 17.0665 12.6237V5.22594H21.3427V11.8093C21.3427 12.5219 21.5717 13.0988 21.9917 13.5399C22.4117 13.9811 22.9844 14.1847 23.6717 14.1847C24.5498 14.1847 25.237 13.9132 25.7334 13.3703C26.2297 12.8273 26.4588 11.9789 26.4588 10.8252V5.22594H30.7731L30.8113 17.2727ZM44.1362 17.2727H32.6822V16.5601L38.0655 8.28005H32.8349V5.22594H44.0598V5.93856L38.6764 14.2186H44.098V17.2727H44.1362ZM57.4228 17.2727H46.007V16.5601L51.3522 8.28005H46.1215V5.22594H57.3465V5.93856L51.9631 14.2186H57.3847L57.4228 17.2727ZM63.8371 8.07645H71.664V11.5378H63.8371V17.3067H59.37V1.18771H72.3513V4.64905H63.8371V8.07645ZM103.315 12.2504H93.3885C93.6557 13.7435 94.9157 14.5919 96.7865 14.5919C98.2755 14.5919 99.7645 14.0829 100.872 13.3024L102.514 15.8475C100.986 17.0013 99.0391 17.646 96.7865 17.646C92.2431 17.646 89.1505 15.2027 89.1505 11.2663C89.1505 9.3999 89.8377 7.87284 91.2122 6.68512C92.5867 5.49741 94.3048 4.88659 96.3284 4.88659C98.2755 4.88659 99.9173 5.46348 101.254 6.65119C102.59 7.8389 103.277 9.36596 103.315 11.3002V12.2504ZM94.5721 8.48366C94.0375 8.82301 93.6557 9.29809 93.4648 9.87498H99.0391C98.8482 9.26416 98.5046 8.78907 98.0083 8.44973C97.5119 8.14431 96.9392 7.97464 96.3284 7.97464C95.6793 7.97464 95.1066 8.14432 94.5721 8.48366ZM87.5088 12.2504H77.5819C77.8492 13.7435 79.1091 14.5919 80.98 14.5919C82.469 14.5919 83.958 14.0829 85.0652 13.3024L86.707 15.8475C85.1798 17.0013 83.2326 17.646 80.98 17.646C76.4365 17.646 73.3439 15.2027 73.3439 11.2663C73.3439 9.3999 74.0312 7.87284 75.4057 6.68512C76.7801 5.49741 78.4983 4.88659 80.5218 4.88659C82.469 4.88659 84.1107 5.46348 85.447 6.65119C86.7833 7.8389 87.4706 9.36596 87.5088 11.3002V12.2504ZM78.7655 8.48366C78.231 8.82301 77.8492 9.29809 77.6583 9.87498H83.2326C83.0417 9.26416 82.6981 8.78907 82.2017 8.44973C81.7054 8.14431 81.1327 7.97464 80.5218 7.97464C79.8727 7.97464 79.3 8.14432 78.7655 8.48366ZM120 17.2727H115.686V16.3226C114.578 17.2049 113.204 17.646 111.486 17.646C109.653 17.646 108.088 17.0352 106.79 15.8475C105.492 14.6598 104.842 13.1327 104.842 11.2663C104.842 9.3999 105.492 7.87284 106.79 6.68512C108.088 5.49741 109.653 4.88659 111.486 4.88659C113.204 4.88659 114.617 5.32774 115.686 6.21004V0H120V17.2727ZM114.731 13.506C115.38 12.9291 115.724 12.1825 115.724 11.2663C115.724 10.384 115.38 9.63744 114.731 9.02662C114.082 8.44973 113.28 8.14432 112.402 8.14432C111.448 8.14432 110.684 8.44973 110.073 9.02662C109.462 9.60351 109.157 10.3501 109.157 11.2663C109.157 12.1825 109.462 12.963 110.073 13.5399C110.684 14.1168 111.448 14.3883 112.402 14.3883C113.28 14.3883 114.044 14.0829 114.731 13.506Z" fill="#B3B7BC"/>
</svg>
