<svg width="137" height="23" viewBox="0 0 137 23" fill="none" xmlns="http://www.w3.org/2000/svg">
<path d="M120.642 0C120.145 0 119.743 0.357666 119.743 0.798696V6.40039H136.391L128.809 0.000516697L120.642 0Z" fill="#B3B7BC"/>
<path d="M137.001 8.09433C137.001 7.65226 136.602 7.29614 136.102 7.29614H129.801V22.0937L136.998 15.3521L137.001 8.09433Z" fill="#B3B7BC"/>
<path d="M127.891 22.6303C128.386 22.6303 128.789 22.2721 128.789 21.8301V16.2305H112.14L119.723 22.6293L127.891 22.6303Z" fill="#B3B7BC"/>
<path d="M111.532 14.536C111.532 14.9775 111.934 15.3372 112.432 15.3372H118.732V0.538696L111.533 7.27821L111.532 14.536Z" fill="#B3B7BC"/>
<path d="M35.2226 2.70096V9.53465H24.511V2.70096L20.6096 2.69788V19.9285H24.511V12.5262H35.2226V19.9285H39.1303V2.70096H35.2226Z" fill="#B3B7BC"/>
<path d="M87.125 2.70129V19.9247H104.241L102.073 16.8926H91.0374V12.5265H101.724V9.606H91.0374V5.66244H102.055L104.178 2.70129H87.125Z" fill="#B3B7BC"/>
<path d="M6.10796 2.69727C2.04971 2.69727 0 4.89008 0 8.08076V14.5125C0 18.205 2.64143 19.9289 6.08769 19.9289L18.3279 19.9279L16.0588 16.7784H6.84387C4.88624 16.7784 4.03337 16.1495 4.03337 14.2022V8.36689C4.03337 6.48439 4.75134 5.75002 6.89598 5.75002H16.1549L18.3337 2.69727H6.10796Z" fill="#B3B7BC"/>
<path d="M70.0017 2.6932C67.6579 2.6932 65.2556 3.94528 65.2556 7.16581V7.99331C65.2556 11.3507 67.567 12.6316 69.8795 12.6404H77.9966C78.8397 12.6404 79.5246 12.7649 79.5246 14.0314L79.5235 15.4945C79.502 16.6323 78.8634 16.8927 77.9677 16.8927H67.2891L65.1016 19.9249H78.219C81.3821 19.9249 83.5296 18.5261 83.5296 15.2953V14.1081C83.5296 10.9843 81.5344 9.50837 78.4407 9.50837H70.6901C69.8309 9.50837 69.2322 9.29995 69.2322 8.1688V6.97745C69.2322 6.01407 69.6427 5.66259 70.6438 5.66259L80.8135 5.65898L82.939 2.68909L70.0017 2.6932Z" fill="#B3B7BC"/>
<path d="M50.4652 2.70178L41.2734 19.9283H45.6177L47.408 16.3707H57.3965L59.181 19.9283H63.5444L54.3312 2.70178H50.4652ZM52.3927 6.27842L55.9246 13.4384H48.8833L52.3927 6.27842Z" fill="#B3B7BC"/>
</svg>
