<svg width="98" height="29" viewBox="0 0 98 29" fill="none" xmlns="http://www.w3.org/2000/svg">
<path d="M41.9381 15.0887C41.9381 19.2139 38.3072 22.2536 33.8514 22.2536C29.3955 22.2536 25.7646 19.2139 25.7646 15.0887C25.7646 10.9345 29.3955 7.92383 33.8514 7.92383C38.3072 7.92383 41.9381 10.9345 41.9381 15.0887ZM38.3981 15.0887C38.3981 12.5109 36.2937 10.7471 33.8514 10.7471C31.409 10.7471 29.3046 12.5109 29.3046 15.0887C29.3046 17.6407 31.409 19.4303 33.8514 19.4303C36.2937 19.4303 38.3981 17.6375 38.3981 15.0887Z" fill="#B3B7BC"/>
<path d="M59.3836 15.0887C59.3836 19.2139 55.7528 22.2536 51.2969 22.2536C46.841 22.2536 43.2102 19.2139 43.2102 15.0887C43.2102 10.9377 46.841 7.92383 51.2969 7.92383C55.7528 7.92383 59.3836 10.9345 59.3836 15.0887ZM55.8436 15.0887C55.8436 12.5109 53.7393 10.7471 51.2969 10.7471C48.8545 10.7471 46.7502 12.5109 46.7502 15.0887C46.7502 17.6407 48.8545 19.4303 51.2969 19.4303C53.7393 19.4303 55.8436 17.6375 55.8436 15.0887Z" fill="#B3B7BC"/>
<path d="M76.1022 8.35669V21.2199C76.1022 26.5112 72.5913 28.6723 68.4408 28.6723C64.5337 28.6723 62.1822 26.3497 61.2954 24.4503L64.3774 23.3099C64.9262 24.4761 66.271 25.8522 68.4371 25.8522C71.0939 25.8522 72.7403 24.3953 72.7403 21.6528V20.6223H72.6168C71.8245 21.4913 70.298 22.2504 68.3717 22.2504C64.3411 22.2504 60.6484 19.1299 60.6484 15.1146C60.6484 11.0702 64.3411 7.92383 68.3717 7.92383C70.2943 7.92383 71.8208 8.68296 72.6168 9.52608H72.7403V8.35992H76.1022V8.35669ZM72.9911 15.1146C72.9911 12.5917 71.0976 10.7471 68.6879 10.7471C66.2455 10.7471 64.1993 12.5917 64.1993 15.1146C64.1993 17.6116 66.2455 19.4303 68.6879 19.4303C71.0976 19.4303 72.9911 17.6116 72.9911 15.1146Z" fill="#B3B7BC"/>
<path d="M81.6449 0.817261V21.8145H78.1921V0.817261H81.6449Z" fill="#B3B7BC"/>
<path d="M95.1011 17.4474L97.8488 19.0755C96.962 20.2417 94.8249 22.2509 91.1323 22.2509C86.5529 22.2509 83.1328 19.1046 83.1328 15.086C83.1328 10.8252 86.5819 7.92114 90.7361 7.92114C94.9194 7.92114 96.9656 10.8801 97.6344 12.4792L98.0015 13.2932L87.2252 17.2601C88.0503 18.6976 89.3332 19.4308 91.1323 19.4308C92.935 19.4308 94.1853 18.6426 95.1011 17.4474ZM86.6437 14.8696L93.8473 12.211C93.4511 11.3162 92.259 10.6928 90.8561 10.6928C89.057 10.6928 86.5529 12.1044 86.6437 14.8696Z" fill="#B3B7BC"/>
<path d="M12.6952 13.225V10.1853H24.2202C24.3328 10.715 24.391 11.3417 24.391 12.0201C24.391 14.3007 23.6895 17.1208 21.4289 19.1301C19.23 21.1652 16.4206 22.2506 12.6989 22.2506C5.80063 22.2506 0 17.2565 0 11.1253C0 4.99411 5.80063 0 12.6989 0C16.5151 0 19.2337 1.3309 21.2762 3.06559L18.8629 5.21054C17.3982 3.98947 15.4138 3.03975 12.6952 3.03975C7.65785 3.03975 3.71807 6.64804 3.71807 11.1253C3.71807 15.6026 7.65785 19.2108 12.6952 19.2108C15.9626 19.2108 17.8235 18.0447 19.0156 16.9851C19.9824 16.1259 20.6184 14.8983 20.8692 13.2218L12.6952 13.225Z" fill="#B3B7BC"/>
</svg>
